<svg width="165" height="38" viewBox="0 0 165 38" fill="none" xmlns="http://www.w3.org/2000/svg">
<g clip-path="url(#clip0_663_10163)">
<path d="M17.6979 10.0221C18.0684 9.35536 17.779 8.51225 17.0732 8.21945C13.5615 6.76958 9.50273 7.00594 6.17457 8.92851C3.24522 10.6183 1.18409 13.3522 0.368811 16.6365C-0.446465 19.9172 0.100582 23.3037 1.90407 26.1717C5.264 31.5197 12.3015 33.4599 17.9237 30.5954C18.1178 30.4967 18.312 30.3908 18.5025 30.2815C22.2754 28.1049 24.6224 24.1257 24.6754 19.7443C24.693 18.4991 24.0542 17.3773 22.9742 16.7458C21.8801 16.1073 20.5743 16.1003 19.4802 16.7317C18.439 17.3314 17.7755 18.4567 17.7508 19.6632C17.7084 21.5434 16.7132 23.2261 15.0861 24.1645C14.5391 24.4785 13.9568 24.6901 13.3568 24.7995C12.5415 24.9476 11.7015 24.9018 10.8792 24.6548C9.45685 24.2245 8.30629 23.2508 7.64277 21.9138C6.4675 19.5468 7.27925 16.5553 9.49215 15.1055C9.7392 14.9432 9.99331 14.8056 10.258 14.6892C11.4509 14.1565 12.7956 14.086 14.0344 14.4775C14.6097 14.661 15.2308 14.3964 15.5203 13.8637C15.9014 13.1652 15.5626 12.2833 14.8038 12.0399C12.5662 11.3309 10.0992 11.6483 8.08747 12.9642C5.47223 14.6751 4.18755 17.7124 4.60754 20.6651C4.60754 20.6686 4.60754 20.6756 4.60754 20.6827C4.72401 21.4835 4.96754 22.2807 5.34518 23.0392C6.32633 25.0182 8.02747 26.4575 10.1345 27.0925C12.2097 27.7204 14.4791 27.4558 16.3567 26.3728C18.7637 24.9829 20.2354 22.4959 20.299 19.7126C20.306 19.388 20.4754 19.0952 20.7507 18.9365C21.1672 18.6966 21.5378 18.8624 21.6754 18.9436C21.806 19.0212 22.1166 19.254 22.1131 19.7055C22.0707 23.3531 20.0166 26.655 16.7591 28.313C12.3015 30.5848 6.72515 29.0433 4.0605 24.8065C2.63112 22.5277 2.19701 19.8431 2.84288 17.2432C3.48874 14.6398 5.12283 12.4703 7.44513 11.1298C10.0886 9.6023 13.3179 9.41886 16.1097 10.5759C16.7026 10.8229 17.3837 10.5689 17.6943 10.0115L17.6979 10.0221Z" fill="#6232FF"/>
<path d="M41.3824 31.9324C38.9789 31.9324 36.8825 31.428 35.0931 30.4155C33.3038 29.4031 31.9132 27.9744 30.9144 26.1294C29.9156 24.2844 29.418 22.1149 29.418 19.6244C29.418 17.1339 29.9156 14.9714 30.9144 13.1405C31.9097 11.3097 33.3038 9.88099 35.0931 8.85444C36.8825 7.82789 38.9789 7.31638 41.3824 7.31638C43.4647 7.31638 45.3317 7.68325 46.9905 8.41701C48.6458 9.15076 49.9869 10.2055 51.014 11.5813C52.041 12.9606 52.6692 14.6151 52.9057 16.5483L46.087 16.8552C45.8823 15.3912 45.36 14.2835 44.5271 13.5356C43.6906 12.7878 42.6424 12.4139 41.3824 12.4139C39.7413 12.4139 38.4637 13.0453 37.5566 14.3047C36.6461 15.5641 36.1943 17.3385 36.1943 19.6244C36.1943 21.9103 36.6496 23.6918 37.5566 24.9653C38.4637 26.2388 39.7413 26.8773 41.3824 26.8773C42.6424 26.8773 43.6977 26.4892 44.5482 25.7131C45.3988 24.9371 45.9106 23.7553 46.087 22.1749L52.9057 22.4395C52.701 24.3726 52.0904 26.0518 51.081 27.4734C50.0681 28.8951 48.734 29.9957 47.0788 30.7718C45.4235 31.5479 43.5247 31.9359 41.3824 31.9359V31.9324Z" fill="#6232FF"/>
<path d="M54.3555 31.7525V7.31285H60.6024L60.8212 14.3223L60.3377 14.1883C60.7189 11.7612 61.393 10.0115 62.36 8.93205C63.327 7.85258 64.6611 7.31285 66.3623 7.31285H68.5187V12.883H66.3623C65.1305 12.883 64.1176 13.0488 63.327 13.3769C62.5365 13.7085 61.94 14.2306 61.5447 14.9502C61.1494 15.6699 60.9518 16.6435 60.9518 17.8712V31.8019L54.3555 31.749V31.7525Z" fill="#6232FF"/>
<path d="M79.6891 31.9324C77.2856 31.9324 75.1963 31.428 73.421 30.4155C71.6457 29.4031 70.2693 27.9744 69.2881 26.1294C68.307 24.2844 67.8164 22.1149 67.8164 19.6244C67.8164 17.1339 68.307 14.9714 69.2881 13.1405C70.2693 11.3097 71.6422 9.88099 73.3998 8.85444C75.1574 7.82789 77.2397 7.31638 79.6467 7.31638C82.0538 7.31638 84.0302 7.82789 85.7596 8.85444C87.4889 9.88099 88.8301 11.345 89.783 13.2499C90.7359 15.1548 91.2124 17.4267 91.2124 20.0618V21.3812H74.6316C74.7198 23.2579 75.2245 24.6513 76.1492 25.5579C77.0739 26.4681 78.2985 26.9196 79.8232 26.9196C80.9385 26.9196 81.8667 26.6868 82.6149 26.2176C83.3631 25.7484 83.8961 25.0288 84.2208 24.0622L90.863 24.4573C90.2489 26.8032 88.943 28.6341 86.9489 29.9534C84.9549 31.2727 82.5373 31.9324 79.6926 31.9324H79.6891ZM74.6316 17.3385H84.4396C84.3514 15.6099 83.8749 14.3188 83.0102 13.4686C82.1455 12.6185 81.0232 12.1951 79.6467 12.1951C78.2703 12.1951 77.1339 12.6431 76.2374 13.5356C75.341 14.4317 74.808 15.6981 74.6316 17.3385Z" fill="#6232FF"/>
<path d="M100.415 32.2217C97.9515 32.2217 95.9433 31.6502 94.3833 30.5108C92.8269 29.3678 92.0469 27.7733 92.0469 25.7273C92.0469 23.6812 92.7069 21.9985 94.0268 20.8556C95.3468 19.7161 97.2985 18.8765 99.8785 18.3439L107.576 16.8305C107.576 15.2889 107.227 14.1248 106.531 13.3381C105.832 12.5514 104.834 12.1599 103.528 12.1599C102.222 12.1599 101.258 12.4491 100.546 13.0277C99.8326 13.6062 99.3738 14.4599 99.1656 15.5852L92.4457 15.2748C92.8904 12.6643 94.0692 10.6853 95.9821 9.33773C97.895 7.99016 100.411 7.31285 103.524 7.31285C107.085 7.31285 109.761 8.15949 111.557 9.84924C113.353 11.539 114.25 14.0154 114.25 17.2785V25.4204C114.25 26.1012 114.359 26.5527 114.585 26.7785C114.808 27.0007 115.143 27.1136 115.588 27.1136H116.255V31.9606C116.046 32.0206 115.715 32.0771 115.252 32.137C114.793 32.197 114.342 32.2252 113.893 32.2252C112.944 32.2252 112.062 32.0629 111.246 31.7349C110.431 31.4103 109.771 30.853 109.267 30.0663C108.762 29.2796 108.511 27.8932 108.511 26.4398L109.09 26.8843C108.794 27.9532 108.268 28.8845 107.509 29.6853C106.754 30.4861 105.772 31.1069 104.572 31.555C103.373 32.003 101.982 32.2217 100.411 32.2217H100.415ZM102.017 27.6428C103.115 27.6428 104.078 27.4276 104.911 26.9972C105.741 26.5668 106.394 25.9389 106.87 25.1064C107.343 24.2774 107.583 23.2967 107.583 22.1714V21.0143L102.155 22.1714C101.086 22.3795 100.277 22.7287 99.7302 23.2156C99.1797 23.7059 98.9079 24.3338 98.9079 25.1064C98.9079 25.8789 99.1761 26.528 99.7091 26.9761C100.242 27.4205 101.015 27.6428 102.024 27.6428H102.017Z" fill="#6232FF"/>
<path d="M125.705 32.2076C123.683 32.2076 121.932 31.6961 120.461 30.6695C118.989 29.643 117.856 28.2001 117.069 26.3411C116.282 24.482 115.887 22.2737 115.887 19.7161C115.887 17.1586 116.289 14.9502 117.09 13.0912C117.895 11.2321 119.031 9.78927 120.503 8.76272C121.975 7.73617 123.708 7.22466 125.702 7.22466C127.399 7.22466 128.864 7.5739 130.099 8.27237C131.335 8.97085 132.263 9.93038 132.888 11.1509V0H139.583V32.4016L133.198 32.3522L133.064 28.1472C132.411 29.4278 131.433 30.4226 130.142 31.1352C128.846 31.8478 127.368 32.204 125.702 32.204L125.705 32.2076ZM127.894 27.0784C128.963 27.0784 129.873 26.7961 130.615 26.2317C131.359 25.6673 131.924 24.8418 132.312 23.7553C132.697 22.6688 132.891 21.3247 132.891 19.7196C132.891 18.1146 132.697 16.7247 132.312 15.6381C131.924 14.5516 131.359 13.7367 130.615 13.1829C129.87 12.6326 128.963 12.3574 127.894 12.3574C126.316 12.3574 125.067 13.0206 124.145 14.3435C123.224 15.6664 122.762 17.4584 122.762 19.7196C122.762 21.9809 123.231 23.7341 124.167 25.0711C125.105 26.4081 126.344 27.0784 127.894 27.0784Z" fill="#6232FF"/>
<path d="M144.803 38V33.0754H147.927C148.689 33.0754 149.254 32.966 149.621 32.7473C149.988 32.5286 150.274 32.137 150.479 31.5832L150.962 30.2215H149.159L140.695 7.31638H147.443L153.03 24.0657L158.254 7.31638H165.005L155.759 33.6504C155.229 35.2026 154.467 36.3173 153.472 36.9911C152.473 37.6649 151.082 38.0035 149.293 38.0035H144.807L144.803 38Z" fill="#6232FF"/>
</g>
<defs>
<clipPath id="clip0_663_10163">
<rect width="165" height="38" fill="white"/>
</clipPath>
</defs>
</svg>
